<svg width="48" height="49" viewBox="0 0 48 49" fill="none" xmlns="http://www.w3.org/2000/svg">
<mask id="mask0_4732_229" style="mask-type:alpha" maskUnits="userSpaceOnUse" x="0" y="0" width="48" height="49">
<circle cx="24" cy="24.9565" r="24" fill="#D9D9D9"/>
</mask>
<g mask="url(#mask0_4732_229)">
<path d="M28.21 49.8309L26.5511 49.8309L24.0376 43.4969L21.499 49.8309L19.815 49.8309L22.9317 42.215L19.5133 34.1467L13.0537 49.9566L11.1434 49.9566L18.709 32.1108L20.2674 32.1108L24.0125 40.9332L27.7827 32.1108L29.316 32.1108L36.8564 49.9566L34.9713 49.9566L28.4865 34.1467L25.0933 42.215L28.21 49.8309Z" fill="white"/>
<path d="M19.7898 0.0822783L21.4488 0.0822783L23.9622 6.41628L26.5009 0.0822783L28.1849 0.0822783L25.0682 7.69816L28.4865 15.7665L34.9462 -0.043396L36.8565 -0.043396L29.2909 17.8024H27.7325L23.9874 8.98004L20.2171 17.8024H18.6839L11.1434 -0.043396L13.0286 -0.043396L19.5134 15.7665L22.9066 7.69816L19.7898 0.0822783Z" fill="white"/>
<path d="M48.8743 20.7463L48.8743 22.4052L42.5403 24.9187L48.8743 27.4574L48.8743 29.1414L41.2584 26.0247L33.1901 29.443L49 35.9027L49 37.8129L31.1542 30.2473L31.1542 28.689L39.9766 24.9439L31.1542 21.1736L31.1542 19.6404L49 12.0999L49 13.985L33.1901 20.4698L41.2584 23.8631L48.8743 20.7463Z" fill="white"/>
<path d="M-0.874326 29.1666L-0.874326 27.5077L5.45968 24.9942L-0.874326 22.4556L-0.874326 20.7716L6.74156 23.8883L14.8099 20.4699L-1 14.0103L-1 12.1L16.8458 19.6656L16.8458 21.224L8.02344 24.9691L16.8458 28.7393L16.8458 30.2726L-1 37.813L-1 35.9279L14.8099 29.4431L6.74156 26.0499L-0.874326 29.1666Z" fill="white"/>
<circle cx="24" cy="24.9567" r="4" fill="white"/>
</g>
</svg>
