<svg width="256" height="49" viewBox="0 0 256 49" fill="none" xmlns="http://www.w3.org/2000/svg">
<mask id="mask0_4807_59362" style="mask-type:alpha" maskUnits="userSpaceOnUse" x="98" y="0" width="49" height="49">
<circle cx="122.806" cy="24.9565" r="24" fill="#D9D9D9"/>
</mask>
<g mask="url(#mask0_4807_59362)">
<path d="M127.016 49.8309L125.358 49.8309L122.844 43.4969L120.305 49.8309L118.621 49.8309L121.738 42.215L118.32 34.1467L111.86 49.9566L109.95 49.9566L117.515 32.1108L119.074 32.1108L122.819 40.9332L126.589 32.1108L128.122 32.1108L135.663 49.9566L133.778 49.9566L127.293 34.1467L123.9 42.215L127.016 49.8309Z" fill="white"/>
<path d="M118.596 0.0822783L120.255 0.0822783L122.769 6.41628L125.307 0.0822783L126.991 0.0822783L123.874 7.69816L127.293 15.7665L133.752 -0.043396L135.663 -0.043396L128.097 17.8024H126.539L122.794 8.98004L119.023 17.8024H117.49L109.95 -0.043396L111.835 -0.043396L118.32 15.7665L121.713 7.69816L118.596 0.0822783Z" fill="white"/>
<path d="M147.681 20.7463L147.681 22.4052L141.347 24.9187L147.681 27.4574L147.681 29.1414L140.065 26.0247L131.996 29.443L147.806 35.9027L147.806 37.8129L129.96 30.2473L129.96 28.689L138.783 24.9439L129.96 21.1736L129.96 19.6404L147.806 12.0999L147.806 13.985L131.996 20.4698L140.065 23.8631L147.681 20.7463Z" fill="white"/>
<path d="M97.9319 29.1666L97.9319 27.5077L104.266 24.9942L97.9319 22.4556L97.9319 20.7716L105.548 23.8883L113.616 20.4699L97.8063 14.0103L97.8063 12.1L115.652 19.6656L115.652 21.224L106.83 24.9691L115.652 28.7393L115.652 30.2726L97.8063 37.813L97.8063 35.9279L113.616 29.4431L105.548 26.0499L97.9319 29.1666Z" fill="white"/>
<circle cx="122.806" cy="24.9567" r="4" fill="#D33F00"/>
</g>
<path d="M18.8612 34.6787L17.0278 34.6787L14.2501 27.6787L11.4445 34.6787L9.58339 34.6787L13.0278 26.2621L9.25006 17.3454L2.11116 34.8176L4.76837e-05 34.8176L8.36117 15.0954L10.0834 15.0954L14.2223 24.8454L18.389 15.0954L20.0834 15.0954L28.4167 34.8176L26.3334 34.8176L19.1667 17.3454L15.4167 26.2621L18.8612 34.6787Z" fill="white"/>
<path d="M68.4429 15.0953V34.8176H66.5262V25.5953H54.8318V34.8176H52.8873V15.0953H54.8318V23.8731H66.5262V15.0953H68.4429Z" fill="white"/>
<path d="M73.3952 34.8176V15.0953H81.7285C82.5804 15.0953 83.3581 15.2713 84.0618 15.6231C84.7656 15.975 85.3767 16.4564 85.8952 17.0676C86.4322 17.6602 86.8396 18.3268 87.1174 19.0676C87.4137 19.7898 87.5619 20.5305 87.5619 21.2898C87.5619 22.2342 87.3767 23.1231 87.0063 23.9565C86.6544 24.7898 86.1452 25.4935 85.4785 26.0676C84.8304 26.6416 84.0618 27.0213 83.173 27.2065L88.0063 34.8176H85.8118L81.173 27.5398H75.3396V34.8176H73.3952ZM75.3396 25.8176H81.7841C82.5618 25.8176 83.2378 25.6046 83.8118 25.1787C84.3859 24.7528 84.8304 24.1972 85.1452 23.512C85.46 22.8083 85.6174 22.0676 85.6174 21.2898C85.6174 20.4935 85.4322 19.762 85.0618 19.0953C84.71 18.4102 84.2285 17.8639 83.6174 17.4565C83.0248 17.0305 82.3581 16.8176 81.6174 16.8176H75.3396V25.8176Z" fill="white"/>
<path fill-rule="evenodd" clip-rule="evenodd" d="M39.5479 33.1048C44.0479 33.1048 47.696 29.4568 47.696 24.9567C47.696 20.4566 44.0479 16.8085 39.5479 16.8085C35.0478 16.8085 31.3997 20.4566 31.3997 24.9567C31.3997 29.4568 35.0478 33.1048 39.5479 33.1048ZM39.5479 34.9567C45.0707 34.9567 49.5479 30.4795 49.5479 24.9567C49.5479 19.4338 45.0707 14.9567 39.5479 14.9567C34.025 14.9567 29.5479 19.4338 29.5479 24.9567C29.5479 30.4795 34.025 34.9567 39.5479 34.9567Z" fill="white"/>
<path d="M167.158 15.2345H168.991L171.768 22.232L174.572 15.2345H176.433L172.99 23.6481L176.766 32.5616L183.902 15.0956H186.013L177.655 34.8108H175.933L171.796 25.0643L167.631 34.8108H165.937L157.606 15.0956H159.689L166.853 32.5616L170.602 23.6481L167.158 15.2345Z" fill="white"/>
<path d="M210.211 34.8108V15.0956H212.154V33.0892H223.539V34.8108H210.211Z" fill="white"/>
<path d="M226.399 34.8108V15.0956H239.339V16.8172H228.343V24.0647H237.618V25.6752H228.343V34.8108H226.399Z" fill="white"/>
<path d="M255.996 33.0892V34.8108H242.751V15.0956H255.746V16.8172H244.695V23.9258H254.33V25.5641H244.695V33.0892H255.996Z" fill="white"/>
<path fill-rule="evenodd" clip-rule="evenodd" d="M196.758 33.0983C201.257 33.0983 204.904 29.4516 204.904 24.9531C204.904 20.4546 201.257 16.8079 196.758 16.8079C192.26 16.8079 188.613 20.4546 188.613 24.9531C188.613 29.4516 192.26 33.0983 196.758 33.0983ZM196.758 34.9495C202.279 34.9495 206.755 30.4739 206.755 24.9531C206.755 19.4322 202.279 14.9567 196.758 14.9567C191.238 14.9567 186.762 19.4322 186.762 24.9531C186.762 30.4739 191.238 34.9495 196.758 34.9495Z" fill="white"/>
</svg>
