<svg width="65" height="67" viewBox="0 0 65 67" fill="none" xmlns="http://www.w3.org/2000/svg">
<mask id="mask0_4832_816" style="mask-type:alpha" maskUnits="userSpaceOnUse" x="0" y="0" width="65" height="67">
<rect y="0.119385" width="64.8258" height="66" fill="white"/>
</mask>
<g mask="url(#mask0_4832_816)">
<mask id="mask1_4832_816" style="mask-type:alpha" maskUnits="userSpaceOnUse" x="-13" y="0" width="26" height="17">
<rect width="25.713" height="16.5" transform="matrix(1 0 0 -1 -12.8945 16.6194)" fill="#D9D9D9"/>
</mask>
<g mask="url(#mask1_4832_816)">
<path d="M4.17207 -1.4156L2.51316 -1.4156L-0.000333397 5.11634L-2.53896 -1.4156L-4.223 -1.4156L-1.10627 6.43828L-4.52462 14.7587L-10.9843 -1.5452L-12.8946 -1.5452L-5.32894 16.8583L-3.77057 16.8583L-0.0254687 7.76022L3.74477 16.8583L5.278 16.8583L12.8185 -1.5452L10.9334 -1.5452L4.44855 14.7587L1.05533 6.43828L4.17207 -1.4156Z" fill="white"/>
</g>
<mask id="mask2_4832_816" style="mask-type:alpha" maskUnits="userSpaceOnUse" x="3" y="0" width="27" height="17">
<rect x="3.31848" y="0.119385" width="25.713" height="16.5" fill="#D9D9D9"/>
</mask>
<g mask="url(#mask2_4832_816)">
<path d="M20.3851 17.0653L18.7262 17.0653L16.2127 10.7313L13.6741 17.0653L11.99 17.0653L15.1067 9.44945L11.6884 1.38114L5.22872 17.191L3.31846 17.191L10.8841 -0.654789L12.4424 -0.654789L16.1875 8.16757L19.9578 -0.65479L21.491 -0.65479L29.0315 17.191L27.1464 17.191L20.6616 1.38114L17.2683 9.44945L20.3851 17.0653Z" fill="white"/>
</g>
<mask id="mask3_4832_816" style="mask-type:alpha" maskUnits="userSpaceOnUse" x="19" y="0" width="27" height="17">
<rect width="25.713" height="16.5" transform="matrix(1 0 0 -1 19.5315 16.6194)" fill="#D9D9D9"/>
</mask>
<g mask="url(#mask3_4832_816)">
<path d="M36.5981 -1.4156L34.9392 -1.4156L32.4257 5.11634L29.8871 -1.4156L28.203 -1.4156L31.3198 6.43828L27.9014 14.7587L21.4417 -1.5452L19.5315 -1.5452L27.0971 16.8583L28.6555 16.8583L32.4006 7.76022L36.1708 16.8583L37.704 16.8583L45.2445 -1.5452L43.3594 -1.5452L36.8746 14.7587L33.4814 6.43828L36.5981 -1.4156Z" fill="white"/>
</g>
<mask id="mask4_4832_816" style="mask-type:alpha" maskUnits="userSpaceOnUse" x="35" y="0" width="27" height="17">
<rect x="35.7446" y="0.119385" width="25.713" height="16.5" fill="#D9D9D9"/>
</mask>
<g mask="url(#mask4_4832_816)">
<path d="M52.8112 17.0653L51.1523 17.0653L48.6388 10.7313L46.1002 17.0653L44.4162 17.0653L47.5329 9.44945L44.1145 1.38114L37.6549 17.191L35.7446 17.191L43.3102 -0.654789L44.8686 -0.654789L48.6137 8.16757L52.3839 -0.65479L53.9172 -0.65479L61.4576 17.191L59.5725 17.191L53.0877 1.38114L49.6945 9.44945L52.8112 17.0653Z" fill="white"/>
</g>
<mask id="mask5_4832_816" style="mask-type:alpha" maskUnits="userSpaceOnUse" x="51" y="0" width="27" height="17">
<rect width="25.713" height="16.5" transform="matrix(1 0 0 -1 51.9576 16.6194)" fill="#D9D9D9"/>
</mask>
<g mask="url(#mask5_4832_816)">
<path d="M69.0242 -1.4156L67.3653 -1.4156L64.8518 5.11634L62.3132 -1.4156L60.6292 -1.4156L63.7459 6.43828L60.3276 14.7587L53.8679 -1.5452L51.9576 -1.5452L59.5232 16.8583L61.0816 16.8583L64.8267 7.76022L68.5969 16.8583L70.1302 16.8583L77.6707 -1.5452L75.7855 -1.5452L69.3007 14.7587L65.9075 6.43828L69.0242 -1.4156Z" fill="white"/>
</g>
<mask id="mask6_4832_816" style="mask-type:alpha" maskUnits="userSpaceOnUse" x="-13" y="33" width="26" height="17">
<rect width="25.713" height="16.5" transform="matrix(1 0 0 -1 -12.8945 49.6194)" fill="#D9D9D9"/>
</mask>
<g mask="url(#mask6_4832_816)">
<path d="M4.17207 31.5844L2.51316 31.5844L-0.000333397 38.1163L-2.53896 31.5844L-4.223 31.5844L-1.10627 39.4383L-4.52462 47.7587L-10.9843 31.4548L-12.8946 31.4548L-5.32894 49.8583L-3.77057 49.8583L-0.0254687 40.7602L3.74477 49.8583L5.278 49.8583L12.8185 31.4548L10.9334 31.4548L4.44855 47.7587L1.05533 39.4383L4.17207 31.5844Z" fill="white"/>
</g>
<mask id="mask7_4832_816" style="mask-type:alpha" maskUnits="userSpaceOnUse" x="3" y="33" width="27" height="17">
<rect x="3.31848" y="33.1194" width="25.713" height="16.5" fill="#D9D9D9"/>
</mask>
<g mask="url(#mask7_4832_816)">
<path d="M20.3851 50.0653L18.7262 50.0653L16.2127 43.7313L13.6741 50.0653L11.99 50.0653L15.1067 42.4495L11.6884 34.3811L5.22872 50.191L3.31846 50.191L10.8841 32.3452L12.4424 32.3452L16.1875 41.1676L19.9578 32.3452L21.491 32.3452L29.0315 50.191L27.1464 50.191L20.6616 34.3811L17.2683 42.4495L20.3851 50.0653Z" fill="white"/>
</g>
<mask id="mask8_4832_816" style="mask-type:alpha" maskUnits="userSpaceOnUse" x="19" y="33" width="27" height="17">
<rect width="25.713" height="16.5" transform="matrix(1 0 0 -1 19.5315 49.6194)" fill="#D9D9D9"/>
</mask>
<g mask="url(#mask8_4832_816)">
<path d="M36.5981 31.5844L34.9392 31.5844L32.4257 38.1163L29.8871 31.5844L28.203 31.5844L31.3198 39.4383L27.9014 47.7587L21.4417 31.4548L19.5315 31.4548L27.0971 49.8583L28.6555 49.8583L32.4006 40.7602L36.1708 49.8583L37.704 49.8583L45.2445 31.4548L43.3594 31.4548L36.8746 47.7587L33.4814 39.4383L36.5981 31.5844Z" fill="white"/>
</g>
<mask id="mask9_4832_816" style="mask-type:alpha" maskUnits="userSpaceOnUse" x="35" y="33" width="27" height="17">
<rect x="35.7446" y="33.1194" width="25.713" height="16.5" fill="#D9D9D9"/>
</mask>
<g mask="url(#mask9_4832_816)">
<path d="M52.8112 50.0653L51.1523 50.0653L48.6388 43.7313L46.1002 50.0653L44.4162 50.0653L47.5329 42.4495L44.1145 34.3811L37.6549 50.191L35.7446 50.191L43.3102 32.3452L44.8686 32.3452L48.6137 41.1676L52.3839 32.3452L53.9172 32.3452L61.4576 50.191L59.5725 50.191L53.0877 34.3811L49.6945 42.4495L52.8112 50.0653Z" fill="white"/>
</g>
<mask id="mask10_4832_816" style="mask-type:alpha" maskUnits="userSpaceOnUse" x="51" y="33" width="27" height="17">
<rect width="25.713" height="16.5" transform="matrix(1 0 0 -1 51.9576 49.6194)" fill="#D9D9D9"/>
</mask>
<g mask="url(#mask10_4832_816)">
<path d="M69.0242 31.5844L67.3653 31.5844L64.8518 38.1163L62.3132 31.5844L60.6292 31.5844L63.7459 39.4383L60.3276 47.7587L53.8679 31.4548L51.9576 31.4548L59.5232 49.8583L61.0816 49.8583L64.8267 40.7602L68.5969 49.8583L70.1302 49.8583L77.6707 31.4548L75.7855 31.4548L69.3007 47.7587L65.9075 39.4383L69.0242 31.5844Z" fill="white"/>
</g>
<mask id="mask11_4832_816" style="mask-type:alpha" maskUnits="userSpaceOnUse" x="-13" y="16" width="26" height="18">
<rect x="-12.8945" y="16.6194" width="25.713" height="16.5" fill="#D9D9D9"/>
</mask>
<g mask="url(#mask11_4832_816)">
<path d="M4.17207 34.6544L2.51316 34.6544L-0.000333397 28.1224L-2.53896 34.6544L-4.223 34.6544L-1.10627 26.8005L-4.52462 18.48L-10.9843 34.784L-12.8946 34.784L-5.32894 16.3805L-3.77057 16.3805L-0.0254687 25.4785L3.74477 16.3805L5.278 16.3805L12.8185 34.784L10.9334 34.784L4.44855 18.48L1.05533 26.8005L4.17207 34.6544Z" fill="white"/>
</g>
<mask id="mask12_4832_816" style="mask-type:alpha" maskUnits="userSpaceOnUse" x="3" y="16" width="27" height="18">
<rect width="25.713" height="16.5" transform="matrix(1 0 0 -1 3.31848 33.1194)" fill="#D9D9D9"/>
</mask>
<g mask="url(#mask12_4832_816)">
<path d="M20.3851 16.1734L18.7262 16.1734L16.2127 22.5074L13.6741 16.1734L11.99 16.1734L15.1067 23.7893L11.6884 31.8576L5.22872 16.0478L3.31846 16.0478L10.8841 33.8936L12.4424 33.8936L16.1875 25.0712L19.9578 33.8936L21.491 33.8936L29.0315 16.0478L27.1464 16.0478L20.6616 31.8576L17.2683 23.7893L20.3851 16.1734Z" fill="white"/>
</g>
<mask id="mask13_4832_816" style="mask-type:alpha" maskUnits="userSpaceOnUse" x="19" y="16" width="27" height="18">
<rect x="19.5315" y="16.6194" width="25.713" height="16.5" fill="#D9D9D9"/>
</mask>
<g mask="url(#mask13_4832_816)">
<path d="M36.5981 34.6544L34.9392 34.6544L32.4257 28.1224L29.8871 34.6544L28.203 34.6544L31.3198 26.8005L27.9014 18.48L21.4417 34.784L19.5315 34.784L27.0971 16.3805L28.6555 16.3805L32.4006 25.4785L36.1708 16.3805L37.704 16.3805L45.2445 34.784L43.3594 34.784L36.8746 18.48L33.4814 26.8005L36.5981 34.6544Z" fill="white"/>
</g>
<mask id="mask14_4832_816" style="mask-type:alpha" maskUnits="userSpaceOnUse" x="35" y="16" width="27" height="18">
<rect width="25.713" height="16.5" transform="matrix(1 0 0 -1 35.7446 33.1194)" fill="#D9D9D9"/>
</mask>
<g mask="url(#mask14_4832_816)">
<path d="M52.8112 16.1734L51.1523 16.1734L48.6388 22.5074L46.1002 16.1734L44.4162 16.1734L47.5329 23.7893L44.1145 31.8576L37.6549 16.0478L35.7446 16.0478L43.3102 33.8936L44.8686 33.8936L48.6137 25.0712L52.3839 33.8936L53.9172 33.8936L61.4576 16.0478L59.5725 16.0478L53.0877 31.8576L49.6945 23.7893L52.8112 16.1734Z" fill="white"/>
</g>
<mask id="mask15_4832_816" style="mask-type:alpha" maskUnits="userSpaceOnUse" x="51" y="16" width="27" height="18">
<rect x="51.9576" y="16.6194" width="25.713" height="16.5" fill="#D9D9D9"/>
</mask>
<g mask="url(#mask15_4832_816)">
<path d="M69.0242 34.6544L67.3653 34.6544L64.8518 28.1224L62.3132 34.6544L60.6292 34.6544L63.7459 26.8005L60.3276 18.48L53.8679 34.784L51.9576 34.784L59.5232 16.3805L61.0816 16.3805L64.8267 25.4785L68.5969 16.3805L70.1302 16.3805L77.6707 34.784L75.7855 34.784L69.3007 18.48L65.9075 26.8005L69.0242 34.6544Z" fill="white"/>
</g>
<mask id="mask16_4832_816" style="mask-type:alpha" maskUnits="userSpaceOnUse" x="-13" y="49" width="26" height="18">
<rect x="-12.8945" y="49.6194" width="25.713" height="16.5" fill="#D9D9D9"/>
</mask>
<g mask="url(#mask16_4832_816)">
<path d="M4.17207 67.6544L2.51316 67.6544L-0.000333397 61.1224L-2.53896 67.6544L-4.223 67.6544L-1.10627 59.8005L-4.52462 51.48L-10.9843 67.784L-12.8946 67.784L-5.32894 49.3805L-3.77057 49.3805L-0.0254687 58.4785L3.74477 49.3805L5.278 49.3805L12.8185 67.784L10.9334 67.784L4.44855 51.48L1.05533 59.8005L4.17207 67.6544Z" fill="white"/>
</g>
<mask id="mask17_4832_816" style="mask-type:alpha" maskUnits="userSpaceOnUse" x="3" y="49" width="27" height="18">
<rect width="25.713" height="16.5" transform="matrix(1 0 0 -1 3.31848 66.1194)" fill="#D9D9D9"/>
</mask>
<g mask="url(#mask17_4832_816)">
<path d="M20.3851 49.1734L18.7262 49.1734L16.2127 55.5074L13.6741 49.1734L11.99 49.1734L15.1067 56.7893L11.6884 64.8576L5.22872 49.0478L3.31846 49.0478L10.8841 66.8936L12.4424 66.8936L16.1875 58.0712L19.9578 66.8936L21.491 66.8936L29.0315 49.0478L27.1464 49.0478L20.6616 64.8576L17.2683 56.7893L20.3851 49.1734Z" fill="white"/>
</g>
<mask id="mask18_4832_816" style="mask-type:alpha" maskUnits="userSpaceOnUse" x="19" y="49" width="27" height="18">
<rect x="19.5315" y="49.6194" width="25.713" height="16.5" fill="#D9D9D9"/>
</mask>
<g mask="url(#mask18_4832_816)">
<path d="M36.5981 67.6544L34.9392 67.6544L32.4257 61.1224L29.8871 67.6544L28.203 67.6544L31.3198 59.8005L27.9014 51.48L21.4417 67.784L19.5315 67.784L27.0971 49.3805L28.6555 49.3805L32.4006 58.4785L36.1708 49.3805L37.704 49.3805L45.2445 67.784L43.3594 67.784L36.8746 51.48L33.4814 59.8005L36.5981 67.6544Z" fill="white"/>
</g>
<mask id="mask19_4832_816" style="mask-type:alpha" maskUnits="userSpaceOnUse" x="35" y="49" width="27" height="18">
<rect width="25.713" height="16.5" transform="matrix(1 0 0 -1 35.7446 66.1194)" fill="#D9D9D9"/>
</mask>
<g mask="url(#mask19_4832_816)">
<path d="M52.8112 49.1734L51.1523 49.1734L48.6388 55.5074L46.1002 49.1734L44.4162 49.1734L47.5329 56.7893L44.1145 64.8576L37.6549 49.0478L35.7446 49.0478L43.3102 66.8936L44.8686 66.8936L48.6137 58.0712L52.3839 66.8936L53.9172 66.8936L61.4576 49.0478L59.5725 49.0478L53.0877 64.8576L49.6945 56.7893L52.8112 49.1734Z" fill="white"/>
</g>
<mask id="mask20_4832_816" style="mask-type:alpha" maskUnits="userSpaceOnUse" x="51" y="49" width="27" height="18">
<rect x="51.9576" y="49.6194" width="25.713" height="16.5" fill="#D9D9D9"/>
</mask>
<g mask="url(#mask20_4832_816)">
<path d="M69.0242 67.6544L67.3653 67.6544L64.8518 61.1224L62.3132 67.6544L60.6292 67.6544L63.7459 59.8005L60.3276 51.48L53.8679 67.784L51.9576 67.784L59.5232 49.3805L61.0816 49.3805L64.8267 58.4785L68.5969 49.3805L70.1302 49.3805L77.6707 67.784L75.7855 67.784L69.3007 51.48L65.9075 59.8005L69.0242 67.6544Z" fill="white"/>
</g>
</g>
</svg>
